<?xml version="1.0" encoding="UTF-8"?>
<svg id="Icon" xmlns="http://www.w3.org/2000/svg" viewBox="0 0 48 48">
  <defs>
    <style>
      .cls-1 {
        fill: #ff0420;
      }

      .cls-2 {
        fill: #fff;
      }
    </style>
  </defs>
  <rect class="cls-1" width="48" height="48"/>
  <path class="cls-2" d="M24,4c11.045695,0,20,8.954305,20,20s-8.954305,20-20,20S4,35.045695,4,24,12.954305,4,24,4ZM21.6231995,28.3099423c.860648-.680494,1.4660964-1.7062465,1.8163438-3.077256.2101717-.8406488.3902849-1.7062857.5404184-2.5969151.0500198-.3202282.0750485-.5854478.0750485-.7955802,0-.7005339-.1751244-1.3009527-.5254095-1.8013335-.3502488-.5104007-.8305911-.8906671-1.4410299-1.1408386-.6104751-.26019-1.3009513-.3902849-2.0715419-.3902849-2.8320763,0-4.5883811,1.3759998-5.2688766,4.1280372-.2401523,1.0107436-.4252951,1.8763806-.5553901,2.5969151-.0500575.3202282-.0750478.5904381-.0750478.8105905,0,1.0507798.3752761,1.8613703,1.1258283,2.4317714.7605337.560419,1.7362664.8406081,2.9271248.8406081,1.4410662,0,2.5919233-.335237,3.4525321-1.0057141ZM16.9397714,25.7730669c0-.2201524.0200006-.430324.0600382-.6304772.1801525-.9707046.3602673-1.7913135.5404184-2.4617891.1700963-.6804955.4503246-1.185868.8406096-1.5161147.4003049-.3302482.8806487-.4953526,1.4410677-.4953526.9507039,0,1.4260181.455315,1.4260181,1.3659813,0,.2201524-.0199992.4353144-.0600382.645486-.120075.7004947-.2951994,1.5211036-.5253703,2.4617891-.170134.6805347-.4553528,1.1859058-.8556199,1.5161147-.3902849.3302482-.8656384.4953904-1.4260574.4953904-.9607239,0-1.4410662-.4603431-1.4410662-1.3810279ZM26.7857143,29.1655622c.1000759,0,.1951614-.0350109.2852187-.1050677s.1451053-.1601127.1651045-.2702084l.6905154-3.2874291h2.026514c1.3109334,0,2.3417155-.2752003,3.0922677-.8255993.7605707-.5504005,1.2659418-1.4010286,1.5161133-2.5518857.0600382-.2701721.0900559-.5303621.0900559-.7805713,0-.8706287-.3402652-1.5361154-1.0207607-1.9964585-.670477-.4603417-1.5611427-.690514-2.6719622-.690514h-3.9929141c-.1000759,0-.1951614.0350487-.2852187.1050677-.0900574.0700567-.1451053.1601519-.1651059.2702084l-2.0715419,9.7571818c-.0200006.1000744-.0049904.1901332.045028.2702084.0600382.0700567.1451053.1050677.2552011.1050677h2.041485ZM28.3318481,23.4313529l.5704375-2.6869725h1.8013335c.410287,0,.7004947.0800389.8706287.240153.170134.1501334.2551996.3702858.2551996.6604948,0,.130095-.0150088.2802284-.0450294.4503246-.1000744.430324-.3102475.7605707-.6304757.990743-.3102475.2301708-.6755051.345257-1.0958078.345257h-1.7262864Z"/>
</svg>