<svg xmlns="http://www.w3.org/2000/svg" xmlns:xlink="http://www.w3.org/1999/xlink" width="1200" zoomAndPan="magnify" viewBox="0 0 900 299.999988" height="400" preserveAspectRatio="xMidYMid meet" version="1.0"><defs><g/><clipPath id="eb4c9de82f"><path d="M 38.035156 0.53125 L 900 0.53125 L 900 281.46875 L 38.035156 281.46875 Z M 38.035156 0.53125 " clip-rule="nonzero"/></clipPath><clipPath id="2ce5d3a53a"><path d="M 71.035156 0.53125 L 867 0.53125 C 885.226562 0.53125 900 15.304688 900 33.53125 L 900 248.46875 C 900 266.695312 885.226562 281.46875 867 281.46875 L 71.035156 281.46875 C 52.808594 281.46875 38.035156 266.695312 38.035156 248.46875 L 38.035156 33.53125 C 38.035156 15.304688 52.808594 0.53125 71.035156 0.53125 Z M 71.035156 0.53125 " clip-rule="nonzero"/></clipPath><clipPath id="1a594c3644"><path d="M 0.0351562 0.53125 L 862 0.53125 L 862 281.46875 L 0.0351562 281.46875 Z M 0.0351562 0.53125 " clip-rule="nonzero"/></clipPath><clipPath id="7462774fa2"><path d="M 33.035156 0.53125 L 829 0.53125 C 847.226562 0.53125 862 15.304688 862 33.53125 L 862 248.46875 C 862 266.695312 847.226562 281.46875 829 281.46875 L 33.035156 281.46875 C 14.808594 281.46875 0.0351562 266.695312 0.0351562 248.46875 L 0.0351562 33.53125 C 0.0351562 15.304688 14.808594 0.53125 33.035156 0.53125 Z M 33.035156 0.53125 " clip-rule="nonzero"/></clipPath><clipPath id="deae2a9f8b"><rect x="0" width="862" y="0" height="282"/></clipPath><clipPath id="2e9935cf36"><path d="M 0 0.53125 L 280.65625 0.53125 L 280.65625 281.1875 L 0 281.1875 Z M 0 0.53125 " clip-rule="nonzero"/></clipPath><clipPath id="6ddd20fc69"><rect x="0" width="572" y="0" height="138"/></clipPath><clipPath id="af3dc579ba"><rect x="0" width="900" y="0" height="283"/></clipPath></defs><g transform="matrix(1, 0, 0, 1, 0, 9)"><g clip-path="url(#af3dc579ba)"><g clip-path="url(#eb4c9de82f)"><g clip-path="url(#2ce5d3a53a)"><g transform="matrix(1, 0, 0, 1, 38, 0)"><g clip-path="url(#deae2a9f8b)"><g clip-path="url(#1a594c3644)"><g clip-path="url(#7462774fa2)"><path fill="#151a2d" d="M 0.0351562 0.53125 L 861.503906 0.53125 L 861.503906 281.46875 L 0.0351562 281.46875 Z M 0.0351562 0.53125 " fill-opacity="1" fill-rule="nonzero"/></g></g></g></g></g></g><g clip-path="url(#2e9935cf36)"><path fill="#151a2d" d="M 35.082031 0.53125 L 245.574219 0.53125 C 246.722656 0.53125 247.867188 0.585938 249.011719 0.699219 C 250.15625 0.8125 251.289062 0.980469 252.417969 1.207031 C 253.542969 1.429688 254.65625 1.707031 255.757812 2.042969 C 256.855469 2.375 257.9375 2.761719 259 3.203125 C 260.058594 3.640625 261.097656 4.132812 262.109375 4.675781 C 263.125 5.214844 264.109375 5.804688 265.0625 6.445312 C 266.019531 7.082031 266.941406 7.765625 267.828125 8.496094 C 268.71875 9.222656 269.566406 9.996094 270.378906 10.808594 C 271.191406 11.621094 271.960938 12.46875 272.691406 13.359375 C 273.421875 14.246094 274.105469 15.167969 274.742188 16.121094 C 275.378906 17.078125 275.972656 18.0625 276.511719 19.074219 C 277.054688 20.089844 277.542969 21.125 277.984375 22.1875 C 278.425781 23.25 278.8125 24.332031 279.144531 25.429688 C 279.476562 26.527344 279.757812 27.640625 279.980469 28.769531 C 280.203125 29.894531 280.375 31.03125 280.484375 32.175781 C 280.597656 33.316406 280.65625 34.464844 280.65625 35.613281 L 280.65625 246.105469 C 280.65625 247.253906 280.597656 248.398438 280.484375 249.542969 C 280.375 250.6875 280.203125 251.820312 279.980469 252.949219 C 279.757812 254.074219 279.476562 255.1875 279.144531 256.289062 C 278.8125 257.386719 278.425781 258.46875 277.984375 259.53125 C 277.542969 260.589844 277.054688 261.628906 276.511719 262.640625 C 275.972656 263.65625 275.378906 264.640625 274.742188 265.59375 C 274.105469 266.550781 273.421875 267.472656 272.691406 268.359375 C 271.960938 269.25 271.191406 270.097656 270.378906 270.910156 C 269.566406 271.722656 268.71875 272.496094 267.828125 273.222656 C 266.941406 273.953125 266.019531 274.636719 265.0625 275.273438 C 264.109375 275.914062 263.125 276.503906 262.109375 277.042969 C 261.097656 277.585938 260.058594 278.078125 259 278.515625 C 257.9375 278.957031 256.855469 279.34375 255.757812 279.675781 C 254.65625 280.007812 253.542969 280.289062 252.417969 280.511719 C 251.289062 280.738281 250.15625 280.90625 249.011719 281.015625 C 247.867188 281.128906 246.722656 281.1875 245.574219 281.1875 L 35.082031 281.1875 C 33.933594 281.1875 32.785156 281.128906 31.644531 281.015625 C 30.5 280.90625 29.363281 280.738281 28.238281 280.511719 C 27.109375 280.289062 25.996094 280.007812 24.898438 279.675781 C 23.796875 279.34375 22.71875 278.957031 21.65625 278.515625 C 20.59375 278.078125 19.558594 277.585938 18.542969 277.042969 C 17.53125 276.503906 16.546875 275.914062 15.589844 275.273438 C 14.636719 274.636719 13.714844 273.953125 12.828125 273.222656 C 11.9375 272.496094 11.085938 271.722656 10.273438 270.910156 C 9.460938 270.097656 8.691406 269.25 7.964844 268.359375 C 7.234375 267.472656 6.550781 266.550781 5.914062 265.59375 C 5.273438 264.640625 4.683594 263.65625 4.140625 262.640625 C 3.601562 261.628906 3.109375 260.589844 2.671875 259.53125 C 2.230469 258.46875 1.84375 257.386719 1.511719 256.289062 C 1.175781 255.1875 0.898438 254.074219 0.675781 252.949219 C 0.449219 251.820312 0.28125 250.6875 0.167969 249.542969 C 0.0546875 248.398438 0 247.253906 0 246.105469 L 0 35.613281 C 0 34.464844 0.0546875 33.316406 0.167969 32.175781 C 0.28125 31.03125 0.449219 29.894531 0.675781 28.769531 C 0.898438 27.640625 1.175781 26.527344 1.511719 25.429688 C 1.84375 24.332031 2.230469 23.25 2.671875 22.1875 C 3.109375 21.125 3.601562 20.089844 4.140625 19.074219 C 4.683594 18.0625 5.273438 17.078125 5.914062 16.121094 C 6.550781 15.167969 7.234375 14.246094 7.964844 13.359375 C 8.691406 12.46875 9.460938 11.621094 10.273438 10.808594 C 11.085938 9.996094 11.9375 9.222656 12.828125 8.496094 C 13.714844 7.765625 14.636719 7.082031 15.589844 6.445312 C 16.546875 5.804688 17.53125 5.214844 18.542969 4.675781 C 19.558594 4.132812 20.59375 3.640625 21.65625 3.203125 C 22.71875 2.761719 23.796875 2.375 24.898438 2.042969 C 25.996094 1.707031 27.109375 1.429688 28.238281 1.207031 C 29.363281 0.980469 30.5 0.8125 31.644531 0.699219 C 32.785156 0.585938 33.933594 0.53125 35.082031 0.53125 Z M 35.082031 0.53125 " fill-opacity="1" fill-rule="nonzero"/></g><path stroke-linecap="round" transform="matrix(8.770465, 0, 0, 8.770465, 0.000018, 0.531522)" fill="none" stroke-linejoin="round" d="M 9.999824 12.000028 L 5.999805 16.000048 L 9.999824 20.000067 " stroke="#4db8e8" stroke-width="2" stroke-opacity="1" stroke-miterlimit="4"/><path stroke-linecap="round" transform="matrix(8.770465, 0, 0, 8.770465, 0.000018, 0.531522)" fill="none" stroke-linejoin="round" d="M 21.999883 12.000028 L 25.999903 16.000048 L 21.999883 20.000067 " stroke="#4db8e8" stroke-width="2" stroke-opacity="1" stroke-miterlimit="4"/><path stroke-linecap="round" transform="matrix(8.770465, 0, 0, 8.770465, 0.000018, 0.531522)" fill="none" stroke-linejoin="round" d="M 17.999864 9.999795 L 13.999844 21.999854 " stroke="#4db8e8" stroke-width="2" stroke-opacity="1" stroke-miterlimit="4"/><g transform="matrix(1, 0, 0, 1, 280, 87)"><g clip-path="url(#6ddd20fc69)"><g fill="#ffffff" fill-opacity="1"><g transform="translate(0.992996, 99.337382)"><g><path d="M 81.40625 -80.1875 L 29.25 -80.1875 L 29.25 -58.765625 L 77.765625 -58.765625 L 77.765625 -42.453125 L 29.25 -42.453125 L 29.25 -16.3125 L 83.15625 -16.3125 L 83.15625 0 L 9.84375 0 L 9.84375 -96.5 L 81.40625 -96.5 Z M 81.40625 -80.1875 "/></g></g></g><g fill="#ffffff" fill-opacity="1"><g transform="translate(90.876037, 99.337382)"><g><path d="M 49.875 -71.4375 C 54 -71.4375 57.585938 -70.738281 60.640625 -69.34375 C 63.703125 -67.945312 66.132812 -66.304688 67.9375 -64.421875 C 70.09375 -62.085938 71.503906 -59.328125 72.171875 -56.140625 C 72.847656 -52.953125 73.1875 -49.425781 73.1875 -45.5625 L 73.1875 0 L 54.71875 0 L 54.71875 -38.140625 C 54.71875 -44.609375 54 -49.414062 52.5625 -52.5625 C 51.125 -55.707031 48.070312 -57.28125 43.40625 -57.28125 C 39 -57.28125 35.582031 -56.019531 33.15625 -53.5 C 30.726562 -50.988281 29.289062 -48.070312 28.84375 -44.75 C 28.570312 -42.59375 28.367188 -40.660156 28.234375 -38.953125 C 28.097656 -37.242188 28.03125 -35.3125 28.03125 -33.15625 L 28.03125 0 L 9.5625 0 L 9.5625 -69.8125 L 27.09375 -69.8125 L 27.09375 -59.578125 C 29.070312 -62.535156 32.015625 -65.25 35.921875 -67.71875 C 39.828125 -70.195312 44.476562 -71.4375 49.875 -71.4375 Z M 49.875 -71.4375 "/></g></g></g><g fill="#ffffff" fill-opacity="1"><g transform="translate(173.212679, 99.337382)"><g><path d="M 35.171875 -71.4375 C 43.890625 -71.4375 50.742188 -70 55.734375 -67.125 C 60.722656 -64.25 64.160156 -59.53125 66.046875 -52.96875 L 48.515625 -49.734375 C 47.710938 -52.609375 46.253906 -54.738281 44.140625 -56.125 C 42.023438 -57.519531 39.082031 -58.21875 35.3125 -58.21875 C 26.957031 -58.21875 22.78125 -56.289062 22.78125 -52.4375 C 22.78125 -50.539062 24.148438 -49.03125 26.890625 -47.90625 C 29.628906 -46.789062 33.601562 -45.648438 38.8125 -44.484375 C 45.195312 -43.046875 50.410156 -41.582031 54.453125 -40.09375 C 58.492188 -38.613281 61.816406 -36.410156 64.421875 -33.484375 C 67.023438 -30.566406 68.328125 -26.679688 68.328125 -21.828125 C 68.328125 -17.878906 67.226562 -14.128906 65.03125 -10.578125 C 62.832031 -7.023438 59.347656 -4.101562 54.578125 -1.8125 C 49.816406 0.476562 43.800781 1.625 36.53125 1.625 C 28.351562 1.625 21.140625 -0.125 14.890625 -3.625 C 8.648438 -7.132812 4.71875 -12.578125 3.09375 -19.953125 L 21.5625 -22.78125 C 23.269531 -15.320312 28.257812 -11.59375 36.53125 -11.59375 C 39.757812 -11.59375 42.789062 -12.148438 45.625 -13.265625 C 48.457031 -14.390625 49.875 -16.394531 49.875 -19.28125 C 49.875 -21.164062 49.21875 -22.488281 47.90625 -23.25 C 46.601562 -24.007812 44.515625 -24.707031 41.640625 -25.34375 C 33.109375 -27.226562 26.460938 -28.976562 21.703125 -30.59375 C 16.941406 -32.207031 13.078125 -34.539062 10.109375 -37.59375 C 7.140625 -40.65625 5.65625 -44.789062 5.65625 -50 C 5.65625 -57.28125 8.441406 -62.671875 14.015625 -66.171875 C 19.585938 -69.679688 26.640625 -71.4375 35.171875 -71.4375 Z M 35.171875 -71.4375 "/></g></g></g><g fill="#ffffff" fill-opacity="1"><g transform="translate(248.137666, 99.337382)"><g><path d="M 14.015625 -60.921875 C 20.035156 -67.929688 28.570312 -71.4375 39.625 -71.4375 C 56.25 -71.4375 66.628906 -64.019531 70.765625 -49.1875 L 52.5625 -45.953125 C 51.039062 -53.328125 46.816406 -57.015625 39.890625 -57.015625 C 35.222656 -57.015625 31.519531 -55.394531 28.78125 -52.15625 C 26.039062 -48.925781 24.671875 -43.671875 24.671875 -36.390625 C 24.671875 -29.296875 25.835938 -23.703125 28.171875 -19.609375 C 30.503906 -15.523438 34.503906 -13.484375 40.171875 -13.484375 C 43.847656 -13.484375 46.785156 -14.582031 48.984375 -16.78125 C 51.191406 -18.976562 52.703125 -22.328125 53.515625 -26.828125 L 71.703125 -23.71875 C 67.929688 -6.820312 57.101562 1.625 39.21875 1.625 C 28.613281 1.625 20.4375 -1.613281 14.6875 -8.09375 C 11.726562 -11.414062 9.484375 -15.457031 7.953125 -20.21875 C 6.421875 -24.976562 5.65625 -29.875 5.65625 -34.90625 C 5.65625 -40.113281 6.375 -44.960938 7.8125 -49.453125 C 9.25 -53.953125 11.316406 -57.773438 14.015625 -60.921875 Z M 14.015625 -60.921875 "/></g></g></g><g fill="#ffffff" fill-opacity="1"><g transform="translate(323.062652, 99.337382)"><g><path d="M 42.046875 -71.4375 C 44.023438 -71.4375 46.113281 -71.117188 48.3125 -70.484375 C 50.519531 -69.859375 52.476562 -69.050781 54.1875 -68.0625 L 48.390625 -51.890625 C 45.242188 -53.867188 42.367188 -54.859375 39.765625 -54.859375 C 36.253906 -54.859375 33.597656 -53.664062 31.796875 -51.28125 C 30.003906 -48.90625 28.816406 -45.582031 28.234375 -41.3125 C 27.648438 -37.039062 27.359375 -31.359375 27.359375 -24.265625 L 27.359375 0 L 8.890625 0 L 8.890625 -69.8125 L 26.015625 -69.8125 L 26.015625 -59.984375 L 26.28125 -59.984375 C 28.53125 -63.753906 30.773438 -66.601562 33.015625 -68.53125 C 35.265625 -70.46875 38.273438 -71.4375 42.046875 -71.4375 Z M 42.046875 -71.4375 "/></g></g></g><g fill="#ffffff" fill-opacity="1"><g transform="translate(375.483187, 99.337382)"><g><path d="M 28.171875 -79.390625 L 9.703125 -79.390625 L 9.703125 -96.5 L 28.171875 -96.5 Z M 28.171875 0 L 9.703125 0 L 9.703125 -69.8125 L 28.171875 -69.8125 Z M 28.171875 0 "/></g></g></g><g fill="#ffffff" fill-opacity="1"><g transform="translate(412.945695, 99.337382)"><g><path d="M 27.359375 -61.734375 C 33.023438 -68.203125 39.8125 -71.4375 47.71875 -71.4375 C 53.101562 -71.4375 58.019531 -70.109375 62.46875 -67.453125 C 66.914062 -64.804688 70.460938 -60.785156 73.109375 -55.390625 C 75.765625 -50.003906 77.09375 -43.398438 77.09375 -35.578125 C 77.09375 -27.492188 75.722656 -20.664062 72.984375 -15.09375 C 70.242188 -9.519531 66.648438 -5.335938 62.203125 -2.546875 C 57.753906 0.234375 52.96875 1.625 47.84375 1.625 C 44.34375 1.625 40.59375 0.679688 36.59375 -1.203125 C 32.59375 -3.097656 29.109375 -6.113281 26.140625 -10.25 L 26.140625 0 L 8.890625 0 L 8.890625 -96.5 L 27.359375 -96.5 Z M 27.21875 -36.390625 C 27.21875 -32.347656 27.507812 -29.046875 28.09375 -26.484375 C 28.6875 -23.921875 29.65625 -21.695312 31 -19.8125 C 34.238281 -15.320312 38.375 -13.078125 43.40625 -13.078125 C 47.351562 -13.078125 50.785156 -14.78125 53.703125 -18.1875 C 56.628906 -21.601562 58.09375 -27.132812 58.09375 -34.78125 C 58.09375 -41.601562 56.851562 -47.054688 54.375 -51.140625 C 51.90625 -55.234375 47.976562 -57.28125 42.59375 -57.28125 C 38.101562 -57.28125 34.414062 -55.503906 31.53125 -51.953125 C 28.65625 -48.410156 27.21875 -43.222656 27.21875 -36.390625 Z M 27.21875 -36.390625 "/></g></g></g><g fill="#ffffff" fill-opacity="1"><g transform="translate(495.282337, 99.337382)"><g><path d="M 36.390625 -71.4375 C 47.535156 -71.4375 55.847656 -67.816406 61.328125 -60.578125 C 66.804688 -53.347656 69.546875 -43.039062 69.546875 -29.65625 L 23.1875 -29.65625 C 23.363281 -24.976562 24.734375 -20.953125 27.296875 -17.578125 C 29.859375 -14.210938 33.5625 -12.53125 38.40625 -12.53125 C 41.46875 -12.53125 43.960938 -13.316406 45.890625 -14.890625 C 47.828125 -16.460938 49.242188 -18.910156 50.140625 -22.234375 L 68.609375 -19.140625 C 66.265625 -12.304688 62.488281 -7.132812 57.28125 -3.625 C 52.070312 -0.125 45.691406 1.625 38.140625 1.625 C 26.910156 1.625 18.421875 -1.742188 12.671875 -8.484375 C 9.972656 -11.628906 7.90625 -15.582031 6.46875 -20.34375 C 5.03125 -25.113281 4.3125 -29.832031 4.3125 -34.5 C 4.3125 -40.882812 5.457031 -46.882812 7.75 -52.5 C 10.039062 -58.113281 13.585938 -62.671875 18.390625 -66.171875 C 23.203125 -69.679688 29.203125 -71.4375 36.390625 -71.4375 Z M 23.59375 -40.96875 L 51.21875 -40.96875 C 51.125 -46.632812 49.707031 -50.769531 46.96875 -53.375 C 44.226562 -55.976562 41.015625 -57.28125 37.328125 -57.28125 C 33.015625 -57.28125 29.644531 -55.726562 27.21875 -52.625 C 24.800781 -49.53125 23.59375 -45.644531 23.59375 -40.96875 Z M 23.59375 -40.96875 "/></g></g></g></g></g></g></g></svg>