<svg xmlns="http://www.w3.org/2000/svg" xmlns:xlink="http://www.w3.org/1999/xlink" width="500" zoomAndPan="magnify" viewBox="0 0 375 374.999991" height="500" preserveAspectRatio="xMidYMid meet" version="1.0"><defs><clipPath id="6505c494dd"><path d="M 0.441406 0.199219 L 300.679688 0.199219 L 300.679688 191.960938 L 0.441406 191.960938 Z M 0.441406 0.199219 " clip-rule="nonzero"/></clipPath><clipPath id="d088ea917f"><path d="M 0.441406 0.199219 L 225 0.199219 L 225 191.960938 L 0.441406 191.960938 Z M 0.441406 0.199219 " clip-rule="nonzero"/></clipPath><clipPath id="fa61ebfa39"><path d="M 76 0.199219 L 300.679688 0.199219 L 300.679688 191.960938 L 76 191.960938 Z M 76 0.199219 " clip-rule="nonzero"/></clipPath><clipPath id="165b5576e3"><rect x="0" width="301" y="0" height="192"/></clipPath></defs><g transform="matrix(1, 0, 0, 1, 37, 91)"><g clip-path="url(#165b5576e3)"><g clip-path="url(#6505c494dd)"><path stroke-linecap="round" transform="matrix(0.34019, -1.022503, 1.022503, 0.34019, 107.648012, 183.394161)" fill="none" stroke-linejoin="miter" d="M 12.498855 12.502254 L 165.790276 12.498629 " stroke="#151a2d" stroke-width="25" stroke-opacity="1" stroke-miterlimit="4"/></g><g clip-path="url(#d088ea917f)"><path stroke-linecap="round" transform="matrix(0.761985, -0.761985, 0.761985, 0.761985, 0.499522, 97.042169)" fill="none" stroke-linejoin="miter" d="M 12.50055 12.501599 L 81.238073 12.499036 " stroke="#151a2d" stroke-width="25" stroke-opacity="1" stroke-miterlimit="4"/><path stroke-linecap="round" transform="matrix(0.768798, 0.75511, -0.75511, 0.768798, 19.463619, 78.438626)" fill="none" stroke-linejoin="miter" d="M 12.49926 12.501771 L 80.406482 12.501657 " stroke="#151a2d" stroke-width="25" stroke-opacity="1" stroke-miterlimit="4"/></g><g clip-path="url(#fa61ebfa39)"><path stroke-linecap="round" transform="matrix(-0.768084, 0.755837, -0.755837, -0.768084, 300.41508, 97.519988)" fill="none" stroke-linejoin="miter" d="M 12.499452 12.499082 L 80.493294 12.501182 " stroke="#151a2d" stroke-width="25" stroke-opacity="1" stroke-miterlimit="4"/><path stroke-linecap="round" transform="matrix(-0.761985, -0.761985, 0.761985, -0.761985, 281.447581, 116.091803)" fill="none" stroke-linejoin="miter" d="M 12.498409 12.500558 L 81.238495 12.500558 " stroke="#151a2d" stroke-width="25" stroke-opacity="1" stroke-miterlimit="4"/></g></g></g></svg>