<svg xmlns="http://www.w3.org/2000/svg" xmlns:xlink="http://www.w3.org/1999/xlink" width="1200" zoomAndPan="magnify" viewBox="0 0 900 299.999988" height="400" preserveAspectRatio="xMidYMid meet" version="1.0"><defs><g/><clipPath id="d956ae8f5a"><path d="M 250 12 L 841.71875 12 L 841.71875 154.199219 L 250 154.199219 Z M 250 12 " clip-rule="nonzero"/></clipPath><clipPath id="6ebd4c4f32"><rect x="0" width="592" y="0" height="143"/></clipPath><clipPath id="541ba59ea5"><path d="M 0.761719 0.839844 L 230 0.839844 L 230 154.199219 L 0.761719 154.199219 Z M 0.761719 0.839844 " clip-rule="nonzero"/></clipPath><clipPath id="5eba9d5aec"><path d="M 0.761719 0.839844 L 157 0.839844 L 157 154.199219 L 0.761719 154.199219 Z M 0.761719 0.839844 " clip-rule="nonzero"/></clipPath><clipPath id="5559401ab8"><path d="M 54 0.839844 L 303 0.839844 L 303 154.199219 L 54 154.199219 Z M 54 0.839844 " clip-rule="nonzero"/></clipPath><clipPath id="f9f22fc9fb"><rect x="0" width="842" y="0" height="155"/></clipPath></defs><g transform="matrix(1, 0, 0, 1, 29, 81)"><g clip-path="url(#f9f22fc9fb)"><g clip-path="url(#d956ae8f5a)"><g transform="matrix(1, 0, 0, 1, 250, 12)"><g clip-path="url(#6ebd4c4f32)"><g fill="#000000" fill-opacity="1"><g transform="translate(1.105249, 102.96898)"><g><path d="M 84.359375 -83.09375 L 30.3125 -83.09375 L 30.3125 -60.890625 L 80.578125 -60.890625 L 80.578125 -43.984375 L 30.3125 -43.984375 L 30.3125 -16.890625 L 86.171875 -16.890625 L 86.171875 0 L 10.1875 0 L 10.1875 -100 L 84.359375 -100 Z M 84.359375 -83.09375 "/></g></g></g><g fill="#000000" fill-opacity="1"><g transform="translate(94.242591, 102.96898)"><g><path d="M 51.671875 -74.015625 C 55.953125 -74.015625 59.675781 -73.289062 62.84375 -71.84375 C 66.007812 -70.40625 68.523438 -68.707031 70.390625 -66.75 C 72.617188 -64.332031 74.082031 -61.46875 74.78125 -58.15625 C 75.476562 -54.851562 75.828125 -51.203125 75.828125 -47.203125 L 75.828125 0 L 56.703125 0 L 56.703125 -39.515625 C 56.703125 -46.222656 55.957031 -51.207031 54.46875 -54.46875 C 52.976562 -57.726562 49.8125 -59.359375 44.96875 -59.359375 C 40.40625 -59.359375 36.863281 -58.050781 34.34375 -55.4375 C 31.832031 -52.832031 30.347656 -49.804688 29.890625 -46.359375 C 29.609375 -44.128906 29.394531 -42.128906 29.25 -40.359375 C 29.113281 -38.585938 29.046875 -36.585938 29.046875 -34.359375 L 29.046875 0 L 9.921875 0 L 9.921875 -72.34375 L 28.078125 -72.34375 L 28.078125 -61.734375 C 30.117188 -64.804688 33.164062 -67.617188 37.21875 -70.171875 C 41.269531 -72.734375 46.085938 -74.015625 51.671875 -74.015625 Z M 51.671875 -74.015625 "/></g></g></g><g fill="#000000" fill-opacity="1"><g transform="translate(179.560309, 102.96898)"><g><path d="M 36.453125 -74.015625 C 45.484375 -74.015625 52.582031 -72.523438 57.75 -69.546875 C 62.914062 -66.566406 66.476562 -61.679688 68.4375 -54.890625 L 50.28125 -51.53125 C 49.4375 -54.507812 47.921875 -56.71875 45.734375 -58.15625 C 43.546875 -59.601562 40.5 -60.328125 36.59375 -60.328125 C 27.9375 -60.328125 23.609375 -58.328125 23.609375 -54.328125 C 23.609375 -52.367188 25.023438 -50.804688 27.859375 -49.640625 C 30.703125 -48.484375 34.820312 -47.300781 40.21875 -46.09375 C 46.832031 -44.601562 52.234375 -43.085938 56.421875 -41.546875 C 60.609375 -40.015625 64.050781 -37.734375 66.75 -34.703125 C 69.457031 -31.679688 70.8125 -27.65625 70.8125 -22.625 C 70.8125 -18.53125 69.671875 -14.644531 67.390625 -10.96875 C 65.109375 -7.289062 61.5 -4.265625 56.5625 -1.890625 C 51.625 0.484375 45.382812 1.671875 37.84375 1.671875 C 29.375 1.671875 21.898438 -0.140625 15.421875 -3.765625 C 8.953125 -7.398438 4.882812 -13.035156 3.21875 -20.671875 L 22.34375 -23.609375 C 24.113281 -15.878906 29.28125 -12.015625 37.84375 -12.015625 C 41.195312 -12.015625 44.335938 -12.59375 47.265625 -13.75 C 50.203125 -14.914062 51.671875 -16.988281 51.671875 -19.96875 C 51.671875 -21.925781 50.992188 -23.300781 49.640625 -24.09375 C 48.296875 -24.882812 46.132812 -25.601562 43.15625 -26.25 C 34.3125 -28.207031 27.421875 -30.023438 22.484375 -31.703125 C 17.546875 -33.378906 13.539062 -35.800781 10.46875 -38.96875 C 7.394531 -42.132812 5.859375 -46.414062 5.859375 -51.8125 C 5.859375 -59.351562 8.742188 -64.9375 14.515625 -68.5625 C 20.296875 -72.195312 27.609375 -74.015625 36.453125 -74.015625 Z M 36.453125 -74.015625 "/></g></g></g><g fill="#000000" fill-opacity="1"><g transform="translate(257.198026, 102.96898)"><g><path d="M 14.53125 -63.125 C 20.757812 -70.382812 29.601562 -74.015625 41.0625 -74.015625 C 58.28125 -74.015625 69.03125 -66.332031 73.3125 -50.96875 L 54.46875 -47.625 C 52.882812 -55.257812 48.507812 -59.078125 41.34375 -59.078125 C 36.5 -59.078125 32.65625 -57.398438 29.8125 -54.046875 C 26.976562 -50.691406 25.5625 -45.242188 25.5625 -37.703125 C 25.5625 -30.347656 26.769531 -24.550781 29.1875 -20.3125 C 31.601562 -16.082031 35.75 -13.96875 41.625 -13.96875 C 45.4375 -13.96875 48.484375 -15.109375 50.765625 -17.390625 C 53.046875 -19.671875 54.601562 -23.140625 55.4375 -27.796875 L 74.296875 -24.578125 C 70.390625 -7.078125 59.171875 1.671875 40.640625 1.671875 C 29.648438 1.671875 21.175781 -1.675781 15.21875 -8.375 C 12.144531 -11.820312 9.816406 -16.007812 8.234375 -20.9375 C 6.648438 -25.875 5.859375 -30.953125 5.859375 -36.171875 C 5.859375 -41.566406 6.601562 -46.59375 8.09375 -51.25 C 9.582031 -55.90625 11.726562 -59.863281 14.53125 -63.125 Z M 14.53125 -63.125 "/></g></g></g><g fill="#000000" fill-opacity="1"><g transform="translate(334.835743, 102.96898)"><g><path d="M 43.578125 -74.015625 C 45.617188 -74.015625 47.78125 -73.6875 50.0625 -73.03125 C 52.34375 -72.382812 54.367188 -71.550781 56.140625 -70.53125 L 50.140625 -53.765625 C 46.878906 -55.816406 43.898438 -56.84375 41.203125 -56.84375 C 37.566406 -56.84375 34.816406 -55.609375 32.953125 -53.140625 C 31.097656 -50.671875 29.863281 -47.222656 29.25 -42.796875 C 28.644531 -38.378906 28.34375 -32.492188 28.34375 -25.140625 L 28.34375 0 L 9.21875 0 L 9.21875 -72.34375 L 26.953125 -72.34375 L 26.953125 -62.140625 L 27.234375 -62.140625 C 29.554688 -66.054688 31.878906 -69.015625 34.203125 -71.015625 C 36.535156 -73.015625 39.660156 -74.015625 43.578125 -74.015625 Z M 43.578125 -74.015625 "/></g></g></g><g fill="#000000" fill-opacity="1"><g transform="translate(389.154213, 102.96898)"><g><path d="M 29.1875 -82.25 L 10.0625 -82.25 L 10.0625 -100 L 29.1875 -100 Z M 29.1875 0 L 10.0625 0 L 10.0625 -72.34375 L 29.1875 -72.34375 Z M 29.1875 0 "/></g></g></g><g fill="#000000" fill-opacity="1"><g transform="translate(427.973087, 102.96898)"><g><path d="M 28.34375 -63.96875 C 34.21875 -70.664062 41.25 -74.015625 49.4375 -74.015625 C 55.019531 -74.015625 60.113281 -72.640625 64.71875 -69.890625 C 69.332031 -67.148438 73.015625 -62.984375 75.765625 -57.390625 C 78.515625 -51.804688 79.890625 -44.96875 79.890625 -36.875 C 79.890625 -28.488281 78.46875 -21.410156 75.625 -15.640625 C 72.78125 -9.867188 69.050781 -5.539062 64.4375 -2.65625 C 59.832031 0.226562 54.878906 1.671875 49.578125 1.671875 C 45.941406 1.671875 42.050781 0.695312 37.90625 -1.25 C 33.769531 -3.207031 30.164062 -6.328125 27.09375 -10.609375 L 27.09375 0 L 9.21875 0 L 9.21875 -100 L 28.34375 -100 Z M 28.203125 -37.703125 C 28.203125 -33.515625 28.503906 -30.09375 29.109375 -27.4375 C 29.722656 -24.789062 30.726562 -22.488281 32.125 -20.53125 C 35.476562 -15.875 39.757812 -13.546875 44.96875 -13.546875 C 49.0625 -13.546875 52.617188 -15.3125 55.640625 -18.84375 C 58.671875 -22.382812 60.1875 -28.113281 60.1875 -36.03125 C 60.1875 -43.101562 58.90625 -48.757812 56.34375 -53 C 53.789062 -57.238281 49.71875 -59.359375 44.125 -59.359375 C 39.476562 -59.359375 35.660156 -57.519531 32.671875 -53.84375 C 29.691406 -50.164062 28.203125 -44.785156 28.203125 -37.703125 Z M 28.203125 -37.703125 "/></g></g></g><g fill="#000000" fill-opacity="1"><g transform="translate(513.290805, 102.96898)"><g><path d="M 37.703125 -74.015625 C 49.253906 -74.015625 57.867188 -70.265625 63.546875 -62.765625 C 69.222656 -55.273438 72.0625 -44.59375 72.0625 -30.71875 L 24.015625 -30.71875 C 24.203125 -25.882812 25.625 -21.71875 28.28125 -18.21875 C 30.9375 -14.726562 34.773438 -12.984375 39.796875 -12.984375 C 42.960938 -12.984375 45.546875 -13.796875 47.546875 -15.421875 C 49.554688 -17.054688 51.023438 -19.597656 51.953125 -23.046875 L 71.078125 -19.828125 C 68.660156 -12.753906 64.75 -7.398438 59.34375 -3.765625 C 53.945312 -0.140625 47.335938 1.671875 39.515625 1.671875 C 27.878906 1.671875 19.082031 -1.816406 13.125 -8.796875 C 10.332031 -12.054688 8.191406 -16.148438 6.703125 -21.078125 C 5.210938 -26.015625 4.46875 -30.90625 4.46875 -35.75 C 4.46875 -42.363281 5.65625 -48.578125 8.03125 -54.390625 C 10.40625 -60.210938 14.082031 -64.9375 19.0625 -68.5625 C 24.039062 -72.195312 30.253906 -74.015625 37.703125 -74.015625 Z M 24.4375 -42.453125 L 53.0625 -42.453125 C 52.976562 -48.316406 51.515625 -52.597656 48.671875 -55.296875 C 45.828125 -58.003906 42.5 -59.359375 38.6875 -59.359375 C 34.21875 -59.359375 30.722656 -57.75 28.203125 -54.53125 C 25.691406 -51.320312 24.4375 -47.296875 24.4375 -42.453125 Z M 24.4375 -42.453125 "/></g></g></g></g></g></g><g clip-path="url(#541ba59ea5)"><path stroke-linecap="round" transform="matrix(0.268444, -0.806856, 0.806856, 0.268444, 75.580288, 128.423786)" fill="none" stroke-linejoin="miter" d="M 11.001983 11.001294 L 146.25299 10.9981 " stroke="#000000" stroke-width="22" stroke-opacity="1" stroke-miterlimit="4"/></g><g clip-path="url(#5eba9d5aec)"><path stroke-linecap="round" transform="matrix(0.601281, -0.601281, 0.601281, 0.601281, 0.999452, 68.329471)" fill="none" stroke-linejoin="miter" d="M 11.000226 10.997987 L 71.674705 11.001235 " stroke="#000000" stroke-width="22" stroke-opacity="1" stroke-miterlimit="4"/><path stroke-linecap="round" transform="matrix(0.606658, 0.595856, -0.595856, 0.606658, 14.167773, 55.384105)" fill="none" stroke-linejoin="miter" d="M 11.000056 11.002457 L 70.942881 10.99839 " stroke="#000000" stroke-width="22" stroke-opacity="1" stroke-miterlimit="4"/></g><g clip-path="url(#5559401ab8)"><path stroke-linecap="round" transform="matrix(-0.606094, 0.59643, -0.59643, -0.606094, 209.708945, 68.631374)" fill="none" stroke-linejoin="miter" d="M 10.999257 11.001958 L 71.02276 11.000331 " stroke="#000000" stroke-width="22" stroke-opacity="1" stroke-miterlimit="4"/><path stroke-linecap="round" transform="matrix(-0.601281, -0.601281, 0.601281, -0.601281, 196.533964, 81.557653)" fill="none" stroke-linejoin="miter" d="M 11.000125 11.002108 L 71.674604 10.99886 " stroke="#000000" stroke-width="22" stroke-opacity="1" stroke-miterlimit="4"/></g></g></g></svg>